<svg xmlns="http://www.w3.org/2000/svg" width="40" height="43" fill="none"><path fill-rule="evenodd" clip-rule="evenodd" d="M1.451 26.66c-.077.165.002.058.17-.205a.568.568 0 0 0-.17.205Z" fill="#EE2523"/><path fill-rule="evenodd" clip-rule="evenodd" d="M18.426 28.772c-.11-.037-1.489-1.365-1.832-1.694-.345-.334-.82-.356-.82-.356s.106-.303.377-.402c.27-.099.197-.527.197-.527.543-1.574 2.022-2.109 1.717-2.211-.266-.092-1.389-1.203-1.56-1.368.198.187.559-.05.559-.05-.43-.367-1.147-2.427-.873-2.215.271.212.542.117.452-.103-.09-.22-.074-.743-.074-.743s.903 1.15 1.004 1.131c-.08.015-.66.114-.66.114s.78 1.062 1.375 1.171c0 0-.757-.003-.932-.106-.12-.066.036.278.051.311a3.164 3.164 0 0 0 1.74 1.752c-.493.033-1.902 2.66-1.902 2.66-.246.44 2.249 2.453 2.249 2.453s-.958.213-1.068.183Zm-3.759-1.632c-.567.043-3.286 1.903-3.286 1.903s-.502-.802-.697-.714c-.195.084-1.847 1.142-1.847 1.142l-.232-1.365c-.216-1.574.805-4.188.805-4.188-.194.71.913 2.288.913 2.288-.115-1.903 3.39-7.74 3.39-7.74s-1.266 2.71-.683 4.896l1.909-1.543c-.697.666.71 4.168.71 4.168s-.413 1.109-.982 1.153Zm-.403-17.206c.4-.252.876-.417 1.331-.538 0 0-2.013.78-1.886 2.291a16.28 16.28 0 0 0 .552 2.921c.986-.347 1.924.092 1.924.092s-1.476-.062-2.126.879a31.638 31.638 0 0 1-.619-1.915c-.39-1.373-.55-2.873.824-3.73Zm3.428 1.476c-.373-.045-.572.329-.572.329s.253-.198.873.373c.622.57-.537 1.596-.537 1.596s-.2-1.786-1.624-1.076c0 0 .798-.557.661-.838-.389-.806-1.506.354-1.506.354.913-2.126 3.077-.698 2.705-.739Zm2.341.072c-.652-.435-.971.604-.971.604s-.086-1.387-.849-2.064c-.16-.143 1.82 1.46 1.82 1.46Zm6.081 6.015c-2.976-3.035-7.15-2.958-7.15-2.958 1.101-.6 1.146-1.882 1.146-1.882 3.31.989 6.004 4.84 6.004 4.84Zm1.274 2.91 1.817.838-2.697.45s.162-.285-.18-.308c-.345-.018-1.02-.45-1.056-.651-.034-.205.377-1.78 1.141-1.907 0 0-.168 1.014.975 1.578Zm4.48.563c.566.42.72.767.674 1.09-.047.334-.287.8-.565 1.189l-1.174.08c.045-.17.137-.362.302-.572.773-.98.58-1.46.244-1.75-.234-.202-1.113-.542-1.113-.542s1.288.251 1.631.505Zm-6.345-2.148-.576.46-.214.894s-1.252-.128-1.47-.18c-.22-.054.575-1.383 2.26-1.174Zm4.081 7.524c-.733.46-3.189.171-3.89-.1-.7-.274-2.523.235-2.523.235s1.11-.7 1.62-.784c.508-.087 1.733.048 3.08.26 1.345.216 2.391-.245 2.391-.245s.054.176-.678.634Zm-9.857 3.272c-.931.055-.24-.795-.24-.795 1.174.74 2.58.396 2.58.396-.257-.89.422-1.212.422-1.212 1.947-.85 3.213-.534 3.213-.534 2.563.293 4.45-1.171 4.45-1.171.967-.473 1.729-2.045 2.25-2.768.268-.371 1.592-2.143-.293-2.899a575.455 575.455 0 0 1-4.384-1.825l-.361-2.119-3.232-2.99-2.887-1.593s1.233-1.976.451-2.258c-.78-.286-1.817-.838-2.817-.567-1.001.274-1.58-.67-2.513-.615-.934.05-1.525.256-1.525.256L9.139 7.288l-2.734-.685s-.15.96.412 1.801c0 0-3.236 1.27-3.862 2.519-.624 1.248.186-.136 1.391.182 0 0-3.265 3.562-2.973 4.656l.33 3.167s-2.75 5.968-1.261 4.884c1.491-1.08 3.697-.413 3.29-.344-.305.052-1.608 2.204-2.111 2.987.64-.512 2.609-.68 2.609-.68-.947 1.2-1.106 5.175-.685 3.963.422-1.215 1.286-1.05 1.286-1.05-.507.71.54 5.003.54 5.003s1.994-3.037 1.604-2.247c-.387.795.33 2.544.396 1.702.066-.842 2.042-2.76 2.042-2.76l-.04 1.007c.04-1.007 1.636-2.079 1.636-2.079 0 .626.358.875.358.875.2-1.282 3.269-2.314 3.269-2.314.037.125.12.257.218.388l-.01-.007c-1.232 1.684-1.763 2.797-1.763 2.797s1.062-.762 1.415-.879c.355-.117.767-.176.767-.176s-2.005 1.816-2.713 4.041c-.708 2.226-1.062 3.69-1.062 3.69s2.36-2.753 2.89-3.162c.531-.41.885-.645.885-.645s-1.061 1.582-1.238 2.46c-.177.879-.295 2.46-.295 2.46l.707-.645s.177 2.167.826 2.987c.65.82 1.947 1.816 1.947 1.816s-1.062-1.581-.885-3.045c.177-1.465.885-2.46.885-2.46l-1.357.995s-.167-2.46.89-3.806l1.057-1.347-1.593.354s.295-1.585 1.24-2.346c.943-.761 1.356-.82 1.356-.82s-1.003-.292-1.593-.117c-.59.176-1.357.586-1.357.586l.38-1.545c.073.026.1.015.018-.08-.391-.454.168-.86.168-.86 1.106 1.58 4.262 1.054 3.328 1.109Z" fill="#EE2523"/><path fill-rule="evenodd" clip-rule="evenodd" d="M18.551 0A21.28 21.28 0 0 0 2.04 7.815a20.489 20.489 0 0 1 14.466-5.94c11.313 0 20.484 9.106 20.484 20.34 0 9.822-7.017 18.021-16.345 19.921C31.41 41.093 39.823 32.085 39.823 21.12 39.823 9.458 30.299 0 18.55 0Z" fill="#EE2523"/></svg>